<?xml version='1.0' encoding='utf-8'?>
<svg xmlns="http://www.w3.org/2000/svg" width="1920" height="1080" viewBox="0 0 1920 1080" data-theme="light" data-semantic-intent="taxonomy_list" data-relation-type="quantitative" data-site-visual-identity="signal-cobalt">
  <style>
        @font-face {
            font-family: 'Inter';
            src: url('assets/fonts/Inter-Regular.ttf') format('truetype');
            font-weight: 400;
            font-style: normal;
            font-display: swap;
        }
        @font-face {
            font-family: 'Inter';
            src: url('assets/fonts/Inter-Bold.ttf') format('truetype');
            font-weight: 600;
            font-style: normal;
            font-display: swap;
        }
        @font-face {
            font-family: 'Inter';
            src: url('assets/fonts/Inter-Bold.ttf') format('truetype');
            font-weight: 800;
            font-style: normal;
            font-display: swap;
        }
        
:root {
    --background: #f8fafc;
    --panel: #ffffff;
    --primary-text: #0f172a;
    --muted-text: #64748b;
    --inverse-text: #ffffff;
    --border: #e2e8f0;
    --shadow-color: #000000;
    --icon-pad-bg: #1e293b;
    --art-glow: #0891b2;
    --art-glow-opacity: 0.10;
    --art-sheen: #ffffff;
    --art-sheen-opacity: 0.34;
    --art-shadow: #0f172a;
    --art-shadow-opacity: 0.14;
    --art-muted-line: #94a3b8;
    --art-panel-tint: #f1f5f9;
    --semantic-risk: #b91c1c;
    --semantic-warning: #c2410c;
    --semantic-uncertain: #a16207;
    --semantic-evidence: #1d4ed8;
    --semantic-claim: #6d28d9;
    --semantic-positive: #15803d;
    --semantic-outcome: #0e7490;
    --font-family: 'Inter', 'Segoe UI', 'Kalam', Roboto, Helvetica, Arial, sans-serif;
    --radius-xl: 16px;
    --font-family-headline: 'Segoe UI Variable Display', 'Aptos Display', 'Inter', 'Segoe UI', Helvetica, Arial, sans-serif;
    --font-family-body: 'Segoe UI Variable Text', 'Aptos', 'Inter', 'Segoe UI', Helvetica, Arial, sans-serif;
    --font-heading: var(--font-family-headline);
    --font-body: var(--font-family-body);
    --font-size-h1: 64px;
    --font-size-h2: 42px;
    --font-size-h3: 29px;
    --font-size-body: 21px;
    --font-size-caption: 17px;
    --secondary-text: var(--muted-text);
    --panel-border: var(--border);
    --font-weight-normal: 400;
    --font-weight-medium: 500;
    --font-weight-semibold: 600;
    --font-weight-bold: 700;
    --spacing-gutter-pct: 0.07;
    --spacing-top-pct: 0.15;
    --spacing-bottom-pct: 0.07;
    --spacing-title-y-pct: 0.055;
    --accent-1: #1d4ed8;
    --accent-2: #2563eb;
    --accent-3: #4f46e5;
    --accent-4: #6d28d9;
    --accent-5: #0369a1;
    --accent-6: #c2410c;
}
:root[data-theme="dark"] {
    --background: #0f172a;
    --panel: #1e293b;
    --primary-text: #f1f5f9;
    --muted-text: #94a3b8;
    --inverse-text: #0f172a;
    --border: #334155;
    --shadow-color: #000000;
    --icon-pad-bg: #1e293b;
    --art-glow: #7dd3fc;
    --art-glow-opacity: 0.18;
    --art-sheen: #ffffff;
    --art-sheen-opacity: 0.18;
    --art-shadow: #000000;
    --art-shadow-opacity: 0.28;
    --art-muted-line: #64748b;
    --art-panel-tint: #1e293b;
    --semantic-risk: #f87171;
    --semantic-warning: #fb923c;
    --semantic-uncertain: #fbbf24;
    --semantic-evidence: #60a5fa;
    --semantic-claim: #c084fc;
    --semantic-positive: #4ade80;
    --semantic-outcome: #22d3ee;
    --accent-1: #93c5fd;
    --accent-2: #60a5fa;
    --accent-3: #818cf8;
    --accent-4: #a78bfa;
    --accent-5: #38bdf8;
    --accent-6: #fb923c;
}
:root[data-theme="light"] {
    --background: #f8fafc;
    --panel: #ffffff;
    --primary-text: #0f172a;
    --muted-text: #64748b;
    --inverse-text: #ffffff;
    --border: #e2e8f0;
    --shadow-color: #000000;
    --icon-pad-bg: #1e293b;
    --art-glow: #0891b2;
    --art-glow-opacity: 0.10;
    --art-sheen: #ffffff;
    --art-sheen-opacity: 0.34;
    --art-shadow: #0f172a;
    --art-shadow-opacity: 0.14;
    --art-muted-line: #94a3b8;
    --art-panel-tint: #f1f5f9;
    --semantic-risk: #b91c1c;
    --semantic-warning: #c2410c;
    --semantic-uncertain: #a16207;
    --semantic-evidence: #1d4ed8;
    --semantic-claim: #6d28d9;
    --semantic-positive: #15803d;
    --semantic-outcome: #0e7490;
    --accent-1: #1d4ed8;
    --accent-2: #2563eb;
    --accent-3: #4f46e5;
    --accent-4: #6d28d9;
    --accent-5: #0369a1;
    --accent-6: #c2410c;
}</style>
  <rect x="0" y="0" width="1.92E+3" height="1.08E+3" fill="#f8fafc" stroke="none" id="programmatic_background"/>
  <line id="HEADER_DECOR" x1="960.0" x2="1080.0" y1="135.0" y2="135.0" stroke="var(--accent-1)" stroke-width="6" stroke-linecap="round"/>
  <defs>
    <pattern id="svg5265d163-napkin-hatch" patternUnits="userSpaceOnUse" width="12" height="12">
      <path d="M -3 12 L 12 -3 M 0 15 L 15 0" fill="none" stroke="var(--primary-text)" stroke-width="1" stroke-opacity="0.05"/>
    </pattern>
    <radialGradient id="svg5265d163-universal-edge-vignette" cx="50%" cy="50%" r="72%">
      <stop offset="0%" stop-color="var(--background)" stop-opacity="0"/>
      <stop offset="72%" stop-color="var(--background)" stop-opacity="0.12"/>
      <stop offset="100%" stop-color="var(--primary-text)" stop-opacity="0.08"/>
    </radialGradient>
    <linearGradient id="svg5265d163-universal-surface-sheen" x1="0%" y1="0%" x2="100%" y2="100%">
      <stop offset="0%" stop-color="var(--art-sheen)" stop-opacity="var(--art-sheen-opacity)"/>
      <stop offset="46%" stop-color="var(--art-sheen)" stop-opacity="0.035"/>
      <stop offset="100%" stop-color="var(--art-panel-tint)" stop-opacity="0.14"/>
    </linearGradient>
    <radialGradient id="svg5265d163-universal-icon-aura" cx="50%" cy="42%" r="64%">
      <stop offset="0%" stop-color="var(--art-glow)" stop-opacity="var(--art-glow-opacity)"/>
      <stop offset="100%" stop-color="var(--background)" stop-opacity="0"/>
    </radialGradient>
    <filter id="svg5265d163-text-glow" x="-20%" y="-20%" width="140%" height="140%">
      <feDropShadow dx="0" dy="0" stdDeviation="2" flood-color="#000000" flood-opacity="0.4"/>
    </filter>
    <filter id="svg5265d163-shadow" x="-30%" y="-30%" width="160%" height="160%">
      <feDropShadow dx="0" dy="2" stdDeviation="3" flood-color="#000000" flood-opacity="0.08"/>
      <feDropShadow dx="0" dy="6" stdDeviation="10" flood-color="#000000" flood-opacity="0.12"/>
    </filter>
    <marker id="svg5265d163-arrowhead" markerWidth="10" markerHeight="7" refX="9" refY="3.5" orient="auto" markerUnits="strokeWidth">
      <polygon points="0 0, 10 3.5, 0 7" fill="var(--muted-text)" opacity="0.6"/>
    </marker>
  </defs>
  <rect width="100%" height="100%" fill="var(--background)" id="CANVAS_BG"/>
  <rect width="100%" height="100%" fill="url(#svg5265d163-napkin-hatch)"/>
  <rect id="UNIVERSAL_EDGE_VIGNETTE" width="100%" height="100%" fill="url(#svg5265d163-universal-edge-vignette)" opacity="0.62"/>
  <text id="TITLE" x="960.0" y="59" text-anchor="middle" font-weight="700" font-size="63" fill="#0f172a" style="font-size: 69px; font-family: 'Segoe UI Variable Display', 'Aptos Display', 'Inter', 'Segoe UI', Helvetica, Arial, sans-serif; font-weight: 800; font-kerning: normal; font-feature-settings: &quot;kern&quot; 1, &quot;liga&quot; 1; letter-spacing:-1.2px;" data-final-font-size="69">
    <tspan x="960.0" dy="70.47px">Venus Orbital and Observational Constraints</tspan>
  </text>
  <rect id="TITLE_FRAME" x="134" y="59" width="1652" height="103" fill="none"/>
  <g id="DIAGRAM_SCALER" transform="translate(50.3, 33.8) scale(0.95)">
    <g transform="translate(495.0, 390.0)">
      <rect id="ITEM_1_BG" x="-375" y="-120" width="750" height="240" rx="22" fill="var(--accent-1)" stroke="var(--accent-1)" stroke-width="2" fill-opacity="1.0"/>
      <circle cx="-240" cy="0" r="50" fill="var(--accent-1)" opacity="0.15"/>
      <g transform="translate(-90.0, 0.0)">
        <text id="ITEM_1_HEAD" text-anchor="start" font-weight="bold" font-size="36" fill="var(--inverse-text)" x="-6.0" y="-84.0" data-bg-id="ITEM_1_BG" fill-opacity="1.0" style="font-size: 31px; font-family: 'Segoe UI Variable Display', 'Aptos Display', 'Inter', 'Segoe UI', Helvetica, Arial, sans-serif; font-weight: 700; font-kerning: normal; font-feature-settings: &quot;kern&quot; 1, &quot;liga&quot; 1; letter-spacing:-0.4px;" data-final-font-size="31">
          <tspan x="-6.0" dy="33.52px">Maximum Elongation</tspan>
        </text>
        <rect id="ITEM_1_HEAD_FRAME" x="-6" y="-84" width="390" height="50" fill="none"/>
        <text id="ITEM_1_BODY" text-anchor="start" font-size="24" fill="var(--inverse-text)" x="-8.0" y="-28.0" data-bg-id="ITEM_1_BG" style="font-size: 23px; font-family: 'Segoe UI Variable Text', 'Aptos', 'Inter', 'Segoe UI', Helvetica, Arial, sans-serif; font-weight: 400; font-kerning: normal; font-feature-settings: &quot;kern&quot; 1, &quot;liga&quot; 1;" data-final-font-size="23">
          <tspan x="-8.0" dy="35.82px">Angular separation from Sun reaches 47</tspan>
          <tspan x="-8.0" dy="26.45px">degrees maximum</tspan>
        </text>
        <rect id="ITEM_1_BODY_FRAME" x="-8" y="-28" width="460" height="140" fill="none"/>
      </g>
      <circle id="ITEM_1_PAD" cx="-245" cy="0.0" r="48" fill="var(--icon-pad-bg)" stroke="var(--accent-1)" opacity="1" fill-opacity="0.9" stroke-width="2" stroke-opacity="0.72" data-badge-layer="pad"/>
      <circle id="ITEM_1_PAD_INNER" cx="-245" cy="0.0" r="37.44" fill="var(--accent-1)" fill-opacity="0.12" stroke="none" data-badge-layer="tint"/>
      <circle cx="-245" cy="0.0" r="38" fill="none" stroke="var(--accent-1)" stroke-width="3" stroke-dasharray="6 4" display="none" data-suppressed-decoration="redundant-badge-ring"/>
      <g id="ITEM_1_ICON" transform="translate(-283, -38)" data-icon-size="76" stroke-linecap="round" stroke-linejoin="round" data-badge-treatment="clean">
        <g transform="translate(-3.2203389830508473,-3.2203389830508473) scale(3.4350282485875705)" vector-effect="non-scaling-stroke" stroke-width="2.62" stroke-linecap="round" stroke-linejoin="round" stroke-opacity="1.0">
          <path d="M21.3 15.3a2.4 2.4 0 0 1 0 3.4l-2.6 2.6a2.4 2.4 0 0 1-3.4 0L2.7 8.7a2.41 2.41 0 0 1 0-3.4l2.6-2.6a2.41 2.41 0 0 1 3.4 0Z" vector-effect="non-scaling-stroke" fill="none" stroke="#f1f5f9"/>
          <path d="m14.5 12.5 2-2" vector-effect="non-scaling-stroke" fill="none" stroke="#f1f5f9"/>
          <path d="m11.5 9.5 2-2" vector-effect="non-scaling-stroke" fill="none" stroke="#f1f5f9"/>
          <path d="m8.5 6.5 2-2" vector-effect="non-scaling-stroke" fill="none" stroke="#f1f5f9"/>
          <path d="m17.5 15.5 2-2" vector-effect="non-scaling-stroke" fill="none" stroke="#f1f5f9"/>
        </g>
      </g>
    </g>
    <g transform="translate(1425.0, 390.0)">
      <rect id="ITEM_2_BG" x="-375" y="-120" width="750" height="240" rx="22" fill="var(--accent-2)" stroke="var(--accent-2)" stroke-width="2" fill-opacity="1.0"/>
      <circle cx="-240" cy="0" r="50" fill="var(--accent-1)" opacity="0.15"/>
      <g transform="translate(-90.0, 0.0)">
        <text id="ITEM_2_HEAD" text-anchor="start" font-weight="bold" font-size="36" fill="var(--inverse-text)" x="-6.0" y="-84.0" data-bg-id="ITEM_2_BG" fill-opacity="1.0" style="font-size: 31px; font-family: 'Segoe UI Variable Display', 'Aptos Display', 'Inter', 'Segoe UI', Helvetica, Arial, sans-serif; font-weight: 700; font-kerning: normal; font-feature-settings: &quot;kern&quot; 1, &quot;liga&quot; 1; letter-spacing:-0.4px;" data-final-font-size="31">
          <tspan x="-6.0" dy="33.52px">Altitude Estimation</tspan>
        </text>
        <rect id="ITEM_2_HEAD_FRAME" x="-6" y="-84" width="390" height="50" fill="none"/>
        <text id="ITEM_2_BODY" text-anchor="start" font-size="24" fill="var(--inverse-text)" x="-8.0" y="-28.0" data-bg-id="ITEM_2_BG" style="font-size: 23px; font-family: 'Segoe UI Variable Text', 'Aptos', 'Inter', 'Segoe UI', Helvetica, Arial, sans-serif; font-weight: 400; font-kerning: normal; font-feature-settings: &quot;kern&quot; 1, &quot;liga&quot; 1;" data-final-font-size="23">
          <tspan x="-8.0" dy="35.82px">Fist spans roughly 10 degrees</tspan>
          <tspan x="-8.0" dy="26.45px">of angular height</tspan>
        </text>
        <rect id="ITEM_2_BODY_FRAME" x="-8" y="-28" width="460" height="140" fill="none"/>
      </g>
      <circle id="ITEM_2_PAD" cx="-245" cy="0.0" r="48" fill="var(--icon-pad-bg)" stroke="var(--accent-2)" opacity="1" fill-opacity="0.9" stroke-width="2" stroke-opacity="0.72" data-badge-layer="pad"/>
      <circle id="ITEM_2_PAD_INNER" cx="-245" cy="0.0" r="37.44" fill="var(--accent-2)" fill-opacity="0.12" stroke="none" data-badge-layer="tint"/>
      <circle cx="-245" cy="0.0" r="38" fill="none" stroke="var(--accent-2)" stroke-width="3" stroke-dasharray="6 4" display="none" data-suppressed-decoration="redundant-badge-ring"/>
      <g id="ITEM_2_ICON" transform="translate(-283, -38)" data-icon-size="76" stroke-linecap="round" stroke-linejoin="round" data-badge-treatment="clean">
        <g transform="translate(0.296875,0.0) scale(5.428571428571429)" vector-effect="non-scaling-stroke" stroke-width="2.62" stroke-linecap="round" stroke-linejoin="round" stroke-opacity="1.0">
          <path fill="none" d="M3.90126 10.9433v2.4639l5.91328 0.0004v-2.4644s0.58706 -0.2935 1.20056 -0.8806c1.1814 -1.13062 1.3353 -2.91861 1.0158 -4.52232 -0.1066 -0.53475 -0.259 -1.07658 -0.4771 -1.53247h-0.0124v-0.95077c0 -0.81678 -0.6621 -1.47892 -1.4789 -1.47892 -0.81679 0 -1.47892 0.66214 -1.47892 1.47892l0 -0.98498c0 -0.81699 -0.6623 -1.479287 -1.47928 -1.479287 -0.81699 0 -1.47929 0.662297 -1.47929 1.479287l-0.00002 0.98443c0 -0.81648 -0.66189 -1.47837 -1.47837 -1.47837s-1.47837 0.66189 -1.47837 1.47837v2.03026c-0.77433 0.26259 -0.94663 1.19973 -0.94663 2.10238 0 1.7831 0.87567 3.30167 2.17964 3.75417Z" vector-effect="non-scaling-stroke" stroke="#f1f5f9"/>
          <path id="Vector 1200" stroke="#f1f5f9" d="M3.90126 13.4072v-2.4639c-1.30397 -0.4525 -2.17964 -1.97107 -2.17964 -3.75417 0 -1.06331 0.2391 -2.17448 1.41974 -2.17448l2.99233 0c0.61368 0 1.11094 0.49748 1.11094 1.11117 0 0.48946 -0.32028 0.92128 -0.78868 1.06334L4.74518 7.708c0.87527 0 1.94885 0.83012 1.9258 1.90532" vector-effect="non-scaling-stroke" fill="none"/>
          <path id="Vector 1999" stroke="#f1f5f9" d="M9.81451 13.4076v-2.4644s0.58709 -0.2935 1.20059 -0.8806c1.1814 -1.13062 1.3353 -2.91861 1.0157 -4.52232 -0.1065 -0.53475 -0.2589 -1.07658 -0.477 -1.53247" vector-effect="non-scaling-stroke" fill="none"/>
          <path id="Rectangle 745" stroke="#f1f5f9" d="M2.66821 4.94203V3.05649c0 -0.81648 0.66189 -1.47837 1.47837 -1.47837s1.47837 0.66189 1.47837 1.47837v1.88554" vector-effect="non-scaling-stroke" fill="none"/>
          <path id="Rectangle 746" stroke="#f1f5f9" d="M5.625 4.55357V2.07206c0 -0.81699 0.6623 -1.479287 1.47929 -1.479287 0.81698 0 1.47928 0.662297 1.47928 1.479287v2.48151c0 0.77825 -0.60097 1.41613 -1.36415 1.47487" vector-effect="non-scaling-stroke" fill="none"/>
          <path id="Rectangle 747" stroke="#f1f5f9" d="M8.58356 3.05704c0 -0.81678 0.66213 -1.47892 1.47894 -1.47892 0.8168 0 1.4789 0.66214 1.4789 1.47892v1.26929c0 0.81678 -0.6621 1.47891 -1.4789 1.47891 -0.81681 0 -1.47894 -0.66213 -1.47894 -1.47891V3.05704Z" vector-effect="non-scaling-stroke" fill="none"/>
        </g>
      </g>
    </g>
    <g transform="translate(495.0, 750.0)">
      <rect id="ITEM_3_BG" x="-375" y="-120" width="750" height="240" rx="22" fill="var(--accent-3)" stroke="var(--accent-3)" stroke-width="2" fill-opacity="1.0"/>
      <circle cx="-240" cy="0" r="50" fill="var(--accent-1)" opacity="0.15"/>
      <g transform="translate(-90.0, 0.0)">
        <text id="ITEM_3_HEAD" text-anchor="start" font-weight="bold" font-size="36" fill="var(--inverse-text)" x="-6.0" y="-84.0" data-bg-id="ITEM_3_BG" fill-opacity="1.0" style="font-size: 31px; font-family: 'Segoe UI Variable Display', 'Aptos Display', 'Inter', 'Segoe UI', Helvetica, Arial, sans-serif; font-weight: 700; font-kerning: normal; font-feature-settings: &quot;kern&quot; 1, &quot;liga&quot; 1; letter-spacing:-0.4px;" data-final-font-size="31">
          <tspan x="-6.0" dy="33.52px">Horizon Refraction</tspan>
        </text>
        <rect id="ITEM_3_HEAD_FRAME" x="-6" y="-84" width="390" height="50" fill="none"/>
        <text id="ITEM_3_BODY" text-anchor="start" font-size="24" fill="var(--inverse-text)" x="-8.0" y="-28.0" data-bg-id="ITEM_3_BG" style="font-size: 23px; font-family: 'Segoe UI Variable Text', 'Aptos', 'Inter', 'Segoe UI', Helvetica, Arial, sans-serif; font-weight: 400; font-kerning: normal; font-feature-settings: &quot;kern&quot; 1, &quot;liga&quot; 1;" data-final-font-size="23">
          <tspan x="-8.0" dy="35.82px">Atmospheric effects lift objects</tspan>
          <tspan x="-8.0" dy="26.45px">near the horizon line</tspan>
        </text>
        <rect id="ITEM_3_BODY_FRAME" x="-8" y="-28" width="460" height="140" fill="none"/>
      </g>
      <circle id="ITEM_3_PAD" cx="-245" cy="0.0" r="48" fill="var(--icon-pad-bg)" stroke="var(--accent-3)" opacity="1" fill-opacity="0.9" stroke-width="2" stroke-opacity="0.72" data-badge-layer="pad"/>
      <circle id="ITEM_3_PAD_INNER" cx="-245" cy="0.0" r="37.44" fill="var(--accent-3)" fill-opacity="0.12" stroke="none" data-badge-layer="tint"/>
      <circle cx="-245" cy="0.0" r="38" fill="none" stroke="var(--accent-3)" stroke-width="3" stroke-dasharray="6 4" display="none" data-suppressed-decoration="redundant-badge-ring"/>
      <g id="ITEM_3_ICON" transform="translate(-283, -38)" data-icon-size="76" stroke-linecap="round" stroke-linejoin="round" data-badge-treatment="clean">
        <g transform="translate(-3.2203389830508473,-3.2203389830508433) scale(3.4350282485875705)" vector-effect="non-scaling-stroke" stroke-width="2.62" stroke-linecap="round" stroke-linejoin="round" stroke-opacity="1.0">
          <path d="M10 10h4" vector-effect="non-scaling-stroke" fill="none" stroke="#f1f5f9"/>
          <path d="M19 7V4a1 1 0 0 0-1-1h-2a1 1 0 0 0-1 1v3" vector-effect="non-scaling-stroke" fill="none" stroke="#f1f5f9"/>
          <path d="M20 21a2 2 0 0 0 2-2v-3.851c0-1.39-2-2.962-2-4.829V8a1 1 0 0 0-1-1h-4a1 1 0 0 0-1 1v11a2 2 0 0 0 2 2z" vector-effect="non-scaling-stroke" fill="none" stroke="#f1f5f9"/>
          <path d="M 22 16 L 2 16" vector-effect="non-scaling-stroke" fill="none" stroke="#f1f5f9"/>
          <path d="M4 21a2 2 0 0 1-2-2v-3.851c0-1.39 2-2.962 2-4.829V8a1 1 0 0 1 1-1h4a1 1 0 0 1 1 1v11a2 2 0 0 1-2 2z" vector-effect="non-scaling-stroke" fill="none" stroke="#f1f5f9"/>
          <path d="M9 7V4a1 1 0 0 0-1-1H6a1 1 0 0 0-1 1v3" vector-effect="non-scaling-stroke" fill="none" stroke="#f1f5f9"/>
        </g>
      </g>
    </g>
    <g transform="translate(1425.0, 750.0)">
      <rect id="ITEM_4_BG" x="-375" y="-120" width="750" height="240" rx="22" fill="var(--accent-1)" stroke="var(--accent-4)" stroke-width="2" fill-opacity="1.0"/>
      <circle cx="-240" cy="0" r="50" fill="var(--accent-1)" opacity="0.15"/>
      <g transform="translate(-90.0, 0.0)">
        <text id="ITEM_4_HEAD" text-anchor="start" font-weight="bold" font-size="36" fill="var(--inverse-text)" x="-6.0" y="-84.0" data-bg-id="ITEM_4_BG" fill-opacity="1.0" style="font-size: 31px; font-family: 'Segoe UI Variable Display', 'Aptos Display', 'Inter', 'Segoe UI', Helvetica, Arial, sans-serif; font-weight: 700; font-kerning: normal; font-feature-settings: &quot;kern&quot; 1, &quot;liga&quot; 1; letter-spacing:-0.4px;" data-final-font-size="31">
          <tspan x="-6.0" dy="33.52px">Local Obstructions</tspan>
        </text>
        <rect id="ITEM_4_HEAD_FRAME" x="-6" y="-84" width="390" height="50" fill="none"/>
        <text id="ITEM_4_BODY" text-anchor="start" font-size="24" fill="var(--inverse-text)" x="-8.0" y="-28.0" data-bg-id="ITEM_4_BG" style="font-size: 23px; font-family: 'Segoe UI Variable Text', 'Aptos', 'Inter', 'Segoe UI', Helvetica, Arial, sans-serif; font-weight: 400; font-kerning: normal; font-feature-settings: &quot;kern&quot; 1, &quot;liga&quot; 1;" data-final-font-size="23">
          <tspan x="-8.0" dy="35.82px">Buildings and hills can block low-</tspan>
          <tspan x="-8.0" dy="26.45px">altitude planetary views</tspan>
        </text>
        <rect id="ITEM_4_BODY_FRAME" x="-8" y="-28" width="460" height="140" fill="none"/>
      </g>
      <circle id="ITEM_4_PAD" cx="-245" cy="0.0" r="48" fill="var(--icon-pad-bg)" stroke="var(--accent-1)" opacity="1" fill-opacity="0.9" stroke-width="2" stroke-opacity="0.72" data-badge-layer="pad"/>
      <circle id="ITEM_4_PAD_INNER" cx="-245" cy="0.0" r="37.44" fill="var(--accent-1)" fill-opacity="0.12" stroke="none" data-badge-layer="tint"/>
      <circle cx="-245" cy="0.0" r="38" fill="none" stroke="var(--accent-4)" stroke-width="3" stroke-dasharray="6 4" display="none" data-suppressed-decoration="redundant-badge-ring"/>
      <g id="ITEM_4_ICON" transform="translate(-283, -38)" data-icon-size="76" stroke-linecap="round" stroke-linejoin="round" data-badge-treatment="clean">
        <g transform="translate(-5.428571428571429,-4.071428571428575) scale(2.7142857142857144)">
          <path fill-rule="evenodd" clip-rule="evenodd" d="M10 8.83354V3.52275C10 3.23233 9.75879 3 9.46734 3H6.54271C6.24121 3 6 3.23233 6 3.52275V12.1687L5 13.0025V29.0025H27V14.0025L16.07 3.77246L10 8.83354Z" fill="#F3C07B"/>
          <path d="M15.92 27.0025H8.08C8.04 27.0025 8 26.9625 8 26.9225V16.3925C8 15.6425 8.61 15.0325 9.36 15.0325H14.65C15.4 15.0325 16.01 15.6425 16.01 16.3925V26.9225C16 26.9625 15.96 27.0025 15.92 27.0025Z" fill="#8C5543"/>
          <path d="M14.5 21.0024C14.7761 21.0024 15 20.7786 15 20.5024C15 20.2263 14.7761 20.0024 14.5 20.0024C14.2239 20.0024 14 20.2263 14 20.5024C14 20.7786 14.2239 21.0024 14.5 21.0024Z" fill="#402A32"/>
          <path d="M15.96 28.0024H8C7.45 28.0024 7 27.5524 7 27.0024C7 26.4524 7.45 26.0024 8 26.0024H15.96C16.51 26.0024 16.96 26.4524 16.96 27.0024C16.96 27.5524 16.51 28.0024 15.96 28.0024Z" fill="#D3D3D3"/>
          <path d="M30 29.0024H2V28.9124C2 27.8524 2.85 27.0024 3.91 27.0024H28.09C29.14 27.0024 30 27.8524 30 28.9124V29.0024Z" fill="#00F397"/>
          <path d="M16.88 2.3525L29.64 14.9225C30.12 15.3925 30.12 16.1525 29.64 16.6125C29.17 17.0825 28.4 17.0825 27.92 16.6125L16.02 4.8925L4.08 16.6525C3.61 17.1225 2.84 17.1225 2.36 16.6525C1.88 16.1825 1.88 15.4225 2.36 14.9525L15.16 2.3525C15.63 1.8825 16.4 1.8825 16.88 2.3525Z" fill="#F8312F"/>
          <path d="M23.14 21.0024H18.86C18.38 21.0024 18 20.6224 18 20.1424V15.8624C18 15.3924 18.38 15.0024 18.86 15.0024H23.14C23.61 15.0024 24 15.3824 24 15.8624V20.1424C24 20.6224 23.62 21.0024 23.14 21.0024Z" fill="#83CBFF"/>
        </g>
      </g>
    </g>
  </g>
  <text id="SOURCE_NOTE" x="134.0" y="1058.0" fill="var(--muted-text)" opacity="1" style="font-family: var(--font-family); font-size: 20px;">Source: Science Skywatching FAQ</text>
</svg>
