<?xml version='1.0' encoding='utf-8'?>
<svg xmlns="http://www.w3.org/2000/svg" width="1920" height="1080" viewBox="0 0 1920 1080" data-theme="dark" data-semantic-intent="taxonomy_list" data-relation-type="taxonomy" data-site-visual-identity="signal-cobalt">
  <style>
        @font-face {
            font-family: 'Inter';
            src: url('assets/fonts/Inter-Regular.ttf') format('truetype');
            font-weight: 400;
            font-style: normal;
            font-display: swap;
        }
        @font-face {
            font-family: 'Inter';
            src: url('assets/fonts/Inter-Bold.ttf') format('truetype');
            font-weight: 600;
            font-style: normal;
            font-display: swap;
        }
        @font-face {
            font-family: 'Inter';
            src: url('assets/fonts/Inter-Bold.ttf') format('truetype');
            font-weight: 800;
            font-style: normal;
            font-display: swap;
        }
        
:root {
    --background: #0f172a;
    --panel: #1e293b;
    --primary-text: #f1f5f9;
    --muted-text: #94a3b8;
    --inverse-text: #0f172a;
    --border: #334155;
    --shadow-color: #000000;
    --icon-pad-bg: #1e293b;
    --art-glow: #7dd3fc;
    --art-glow-opacity: 0.18;
    --art-sheen: #ffffff;
    --art-sheen-opacity: 0.18;
    --art-shadow: #000000;
    --art-shadow-opacity: 0.28;
    --art-muted-line: #64748b;
    --art-panel-tint: #1e293b;
    --semantic-risk: #f87171;
    --semantic-warning: #fb923c;
    --semantic-uncertain: #fbbf24;
    --semantic-evidence: #60a5fa;
    --semantic-claim: #c084fc;
    --semantic-positive: #4ade80;
    --semantic-outcome: #22d3ee;
    --font-family: 'Inter', 'Segoe UI', 'Kalam', Roboto, Helvetica, Arial, sans-serif;
    --radius-xl: 16px;
    --font-family-headline: 'Segoe UI Variable Display', 'Aptos Display', 'Inter', 'Segoe UI', Helvetica, Arial, sans-serif;
    --font-family-body: 'Segoe UI Variable Text', 'Aptos', 'Inter', 'Segoe UI', Helvetica, Arial, sans-serif;
    --font-heading: var(--font-family-headline);
    --font-body: var(--font-family-body);
    --font-size-h1: 64px;
    --font-size-h2: 42px;
    --font-size-h3: 29px;
    --font-size-body: 21px;
    --font-size-caption: 17px;
    --secondary-text: var(--muted-text);
    --panel-border: var(--border);
    --font-weight-normal: 400;
    --font-weight-medium: 500;
    --font-weight-semibold: 600;
    --font-weight-bold: 700;
    --spacing-gutter-pct: 0.07;
    --spacing-top-pct: 0.15;
    --spacing-bottom-pct: 0.07;
    --spacing-title-y-pct: 0.055;
    --accent-1: #93c5fd;
    --accent-2: #60a5fa;
    --accent-3: #818cf8;
    --accent-4: #a78bfa;
    --accent-5: #38bdf8;
    --accent-6: #fb923c;
}
:root[data-theme="dark"] {
    --background: #0f172a;
    --panel: #1e293b;
    --primary-text: #f1f5f9;
    --muted-text: #94a3b8;
    --inverse-text: #0f172a;
    --border: #334155;
    --shadow-color: #000000;
    --icon-pad-bg: #1e293b;
    --art-glow: #7dd3fc;
    --art-glow-opacity: 0.18;
    --art-sheen: #ffffff;
    --art-sheen-opacity: 0.18;
    --art-shadow: #000000;
    --art-shadow-opacity: 0.28;
    --art-muted-line: #64748b;
    --art-panel-tint: #1e293b;
    --semantic-risk: #f87171;
    --semantic-warning: #fb923c;
    --semantic-uncertain: #fbbf24;
    --semantic-evidence: #60a5fa;
    --semantic-claim: #c084fc;
    --semantic-positive: #4ade80;
    --semantic-outcome: #22d3ee;
    --accent-1: #93c5fd;
    --accent-2: #60a5fa;
    --accent-3: #818cf8;
    --accent-4: #a78bfa;
    --accent-5: #38bdf8;
    --accent-6: #fb923c;
}
:root[data-theme="light"] {
    --background: #f8fafc;
    --panel: #ffffff;
    --primary-text: #0f172a;
    --muted-text: #64748b;
    --inverse-text: #ffffff;
    --border: #e2e8f0;
    --shadow-color: #000000;
    --icon-pad-bg: #1e293b;
    --art-glow: #0891b2;
    --art-glow-opacity: 0.10;
    --art-sheen: #ffffff;
    --art-sheen-opacity: 0.34;
    --art-shadow: #0f172a;
    --art-shadow-opacity: 0.14;
    --art-muted-line: #94a3b8;
    --art-panel-tint: #f1f5f9;
    --semantic-risk: #b91c1c;
    --semantic-warning: #c2410c;
    --semantic-uncertain: #a16207;
    --semantic-evidence: #1d4ed8;
    --semantic-claim: #6d28d9;
    --semantic-positive: #15803d;
    --semantic-outcome: #0e7490;
    --accent-1: #1d4ed8;
    --accent-2: #2563eb;
    --accent-3: #4f46e5;
    --accent-4: #6d28d9;
    --accent-5: #0369a1;
    --accent-6: #c2410c;
}</style>
  <rect x="0" y="0" width="1.92E+3" height="1.08E+3" fill="#0f172a" stroke="none" id="programmatic_background"/>
  <line id="HEADER_DECOR" x1="960.0" x2="1080.0" y1="135.0" y2="135.0" stroke="var(--accent-1)" stroke-width="6" stroke-linecap="round"/>
  <defs>
    <pattern id="svgb4080217-napkin-hatch" patternUnits="userSpaceOnUse" width="12" height="12">
      <path d="M -3 12 L 12 -3 M 0 15 L 15 0" fill="none" stroke="var(--primary-text)" stroke-width="1" stroke-opacity="0.05"/>
    </pattern>
    <filter id="svgb4080217-shadow" x="-30%" y="-30%" width="160%" height="160%">
      <feDropShadow dx="0" dy="2" stdDeviation="3" flood-color="#000000" flood-opacity="0.08"/>
      <feDropShadow dx="0" dy="6" stdDeviation="10" flood-color="#000000" flood-opacity="0.12"/>
    </filter>
    <radialGradient id="svgb4080217-universal-edge-vignette" cx="50%" cy="50%" r="72%">
      <stop offset="0%" stop-color="var(--background)" stop-opacity="0"/>
      <stop offset="72%" stop-color="var(--background)" stop-opacity="0.12"/>
      <stop offset="100%" stop-color="var(--primary-text)" stop-opacity="0.08"/>
    </radialGradient>
    <linearGradient id="svgb4080217-universal-surface-sheen" x1="0%" y1="0%" x2="100%" y2="100%">
      <stop offset="0%" stop-color="var(--art-sheen)" stop-opacity="var(--art-sheen-opacity)"/>
      <stop offset="46%" stop-color="var(--art-sheen)" stop-opacity="0.035"/>
      <stop offset="100%" stop-color="var(--art-panel-tint)" stop-opacity="0.14"/>
    </linearGradient>
    <radialGradient id="svgb4080217-universal-icon-aura" cx="50%" cy="42%" r="64%">
      <stop offset="0%" stop-color="var(--art-glow)" stop-opacity="var(--art-glow-opacity)"/>
      <stop offset="100%" stop-color="var(--background)" stop-opacity="0"/>
    </radialGradient>
    <linearGradient id="svgb4080217-fact-card-sheen" x1="0%" y1="0%" x2="100%" y2="100%">
      <stop offset="0%" stop-color="var(--inverse-text)" stop-opacity="0.18"/>
      <stop offset="54%" stop-color="var(--inverse-text)" stop-opacity="0.04"/>
      <stop offset="100%" stop-color="var(--background)" stop-opacity="0.14"/>
    </linearGradient>
    <radialGradient id="svgb4080217-fact-icon-glow" cx="50%" cy="42%" r="62%">
      <stop offset="0%" stop-color="var(--inverse-text)" stop-opacity="0.22"/>
      <stop offset="100%" stop-color="var(--background)" stop-opacity="0"/>
    </radialGradient>
    <filter id="svgb4080217-text-glow" x="-20%" y="-20%" width="140%" height="140%">
      <feDropShadow dx="0" dy="0" stdDeviation="2" flood-color="#000000" flood-opacity="0.4"/>
    </filter>
    <marker id="svgb4080217-arrowhead" markerWidth="10" markerHeight="7" refX="9" refY="3.5" orient="auto" markerUnits="strokeWidth">
      <polygon points="0 0, 10 3.5, 0 7" fill="var(--muted-text)" opacity="0.6"/>
    </marker>
  </defs>
  <rect width="100%" height="100%" fill="var(--background)" id="CANVAS_BG"/>
  <rect width="100%" height="100%" fill="url(#svgb4080217-napkin-hatch)"/>
  <rect id="UNIVERSAL_EDGE_VIGNETTE" width="100%" height="100%" fill="url(#svgb4080217-universal-edge-vignette)" opacity="0.62"/>
  <line x1="960" y1="178" x2="960" y2="986" stroke="var(--muted-text)" stroke-width="5" stroke-opacity="0.10" stroke-linecap="round"/>
  <path d="M 360 178 C 620 152 1300 152 1560 178" fill="none" stroke="var(--primary-text)" stroke-width="2" stroke-opacity="0.12" stroke-linecap="round"/>
  <text id="TITLE" x="960.0" y="59" font-size="72" font-weight="800" fill="#f1f5f9" style="font-size: 69px; font-family: 'Segoe UI Variable Display', 'Aptos Display', 'Inter', 'Segoe UI', Helvetica, Arial, sans-serif; font-weight: 800; font-kerning: normal; font-feature-settings: &quot;kern&quot; 1, &quot;liga&quot; 1; letter-spacing:-1.2px;" text-anchor="middle" data-final-font-size="69">
    <tspan x="960.0" dy="70.47px">Data Sources for Reentry Analysis</tspan>
  </text>
  <rect id="TITLE_FRAME" x="134" y="59" width="1652" height="103" fill="none"/>
  <g transform="translate(960.0, 220.0)">
    <rect id="ITEM_1_BG" x="-600" y="-64" width="1200" height="184" rx="18" fill="var(--accent-1)" stroke="var(--accent-1)" filter="url(#svgb4080217-shadow)" stroke-width="3" fill-opacity="0.4"/>
    <g transform="translate(-480.0, 0.0)">
      <circle r="45" fill="var(--background)" opacity="0.3"/>
      <circle id="ITEM_1_PAD" cx="0" cy="0" r="42" fill="var(--icon-pad-bg)" stroke="var(--accent-1)" opacity="1" fill-opacity="0.9" stroke-width="2" stroke-opacity="0.72" data-badge-layer="pad"/>
      <circle id="ITEM_1_PAD_INNER" cx="0" cy="0" r="32.76" fill="var(--accent-1)" fill-opacity="0.12" stroke="none" data-badge-layer="tint"/>
      <circle cx="0" cy="0" r="34" fill="none" stroke="var(--accent-1)" stroke-width="3" stroke-dasharray="6 4" display="none" data-suppressed-decoration="redundant-badge-ring"/>
      <g id="ITEM_1_ICON" transform="translate(-34, -34)" data-icon-size="68" stroke-linecap="round" stroke-linejoin="round" data-badge-treatment="clean">
        <g transform="translate(-2.88135593220339,-2.88135593220339) scale(3.073446327683616)" vector-effect="non-scaling-stroke" stroke-width="2.53" stroke-linecap="round" stroke-linejoin="round" stroke-opacity="1.0">
          <path d="M20.341 6.484A10 10 0 0 1 10.266 21.85" vector-effect="non-scaling-stroke" fill="none" stroke="#f1f5f9"/>
          <path d="M3.659 17.516A10 10 0 0 1 13.74 2.152" vector-effect="non-scaling-stroke" fill="none" stroke="#f1f5f9"/>
          <circle cx="12" cy="12" r="3" vector-effect="non-scaling-stroke" fill="none" stroke="#f1f5f9"/>
          <circle cx="19" cy="5" r="2" vector-effect="non-scaling-stroke" fill="none" stroke="#f1f5f9"/>
          <circle cx="5" cy="19" r="2" vector-effect="non-scaling-stroke" fill="none" stroke="#f1f5f9"/>
        </g>
      </g>
    </g>
    <g transform="translate(-330, -34)">
      <text id="ITEM_1_HEAD" text-anchor="start" font-weight="bold" font-size="29" fill="var(--primary-text)" x="0.0" y="-10.0" data-bg-id="ITEM_1_BG" fill-opacity="1.0" stroke="none" style="font-size: 31px; font-family: 'Segoe UI Variable Display', 'Aptos Display', 'Inter', 'Segoe UI', Helvetica, Arial, sans-serif; font-weight: 700; font-kerning: normal; font-feature-settings: &quot;kern&quot; 1, &quot;liga&quot; 1; letter-spacing:-0.4px;" data-final-font-size="31">
        <tspan x="0.0" dy="33.30px">Space-Track Catalogues</tspan>
      </text>
      <rect id="ITEM_1_HEAD_FRAME" x="0" y="-10" width="846" height="42" fill="none"/>
      <text id="ITEM_1_BODY" text-anchor="start" font-size="21" fill="var(--primary-text)" x="0.0" y="30.0" data-bg-id="ITEM_1_BG" style="font-size: 23px; font-family: 'Segoe UI Variable Text', 'Aptos', 'Inter', 'Segoe UI', Helvetica, Arial, sans-serif; font-weight: 400; font-kerning: normal; font-feature-settings: &quot;kern&quot; 1, &quot;liga&quot; 1;" data-final-font-size="23">
        <tspan x="0.0" dy="40.47px">Provides orbital data and decay products for satellites</tspan>
      </text>
      <rect id="ITEM_1_BODY_FRAME" x="0" y="30" width="846" height="114" fill="none"/>
    </g>
  </g>
  <g transform="translate(960.0, 390.0)">
    <rect id="ITEM_2_BG" x="-600" y="-64" width="1200" height="184" rx="18" fill="var(--accent-2)" stroke="var(--accent-2)" filter="url(#svgb4080217-shadow)" stroke-width="3" fill-opacity="0.4"/>
    <g transform="translate(-480.0, 0.0)">
      <circle r="45" fill="var(--background)" opacity="0.3"/>
      <circle id="ITEM_2_PAD" cx="0" cy="0" r="42" fill="var(--icon-pad-bg)" stroke="var(--accent-2)" opacity="1" fill-opacity="0.9" stroke-width="2" stroke-opacity="0.72" data-badge-layer="pad"/>
      <circle id="ITEM_2_PAD_INNER" cx="0" cy="0" r="32.76" fill="var(--accent-2)" fill-opacity="0.12" stroke="none" data-badge-layer="tint"/>
      <circle cx="0" cy="0" r="34" fill="none" stroke="var(--accent-1)" stroke-width="3" stroke-dasharray="6 4" display="none" data-suppressed-decoration="redundant-badge-ring"/>
      <g id="ITEM_2_ICON" transform="translate(-34, -34)" data-icon-size="68" stroke-linecap="round" stroke-linejoin="round" data-badge-treatment="clean">
        <g transform="translate(-3.5172413793103487,-3.517241379310345) scale(3.1264367816091956)" vector-effect="non-scaling-stroke" stroke-width="2.53" stroke-linecap="round" stroke-linejoin="round" stroke-opacity="1.0">
          <path d="M21 14H3" stroke="#f1f5f9" vector-effect="non-scaling-stroke" fill="none"/>
          <path d="M3 8H21" stroke="#f1f5f9" vector-effect="non-scaling-stroke" fill="none"/>
          <path d="M11 17H13" stroke="#f1f5f9" vector-effect="non-scaling-stroke" fill="none"/>
          <path d="M11 11H13" stroke="#f1f5f9" vector-effect="non-scaling-stroke" fill="none"/>
          <path d="M11 5H13" stroke="#f1f5f9" vector-effect="non-scaling-stroke" fill="none"/>
          <path d="M21 2.6V19.4C21 19.7314 20.7314 20 20.4 20H3.6C3.26863 20 3 19.7314 3 19.4V2.6C3 2.26863 3.26863 2 3.6 2H20.4C20.7314 2 21 2.26863 21 2.6Z" stroke="#f1f5f9" vector-effect="non-scaling-stroke" fill="none"/>
          <path d="M17.5 20V22" stroke="#f1f5f9" vector-effect="non-scaling-stroke" fill="none"/>
          <path d="M6.5 20V22" stroke="#f1f5f9" vector-effect="non-scaling-stroke" fill="none"/>
        </g>
      </g>
    </g>
    <g transform="translate(-330, -34)">
      <text id="ITEM_2_HEAD" text-anchor="start" font-weight="bold" font-size="29" fill="var(--primary-text)" x="0.0" y="-10.0" data-bg-id="ITEM_2_BG" fill-opacity="1.0" stroke="none" style="font-size: 31px; font-family: 'Segoe UI Variable Display', 'Aptos Display', 'Inter', 'Segoe UI', Helvetica, Arial, sans-serif; font-weight: 700; font-kerning: normal; font-feature-settings: &quot;kern&quot; 1, &quot;liga&quot; 1; letter-spacing:-0.4px;" data-final-font-size="31">
        <tspan x="0.0" dy="33.30px">Aerospace CORDS Data base</tspan>
      </text>
      <rect id="ITEM_2_HEAD_FRAME" x="0" y="-10" width="846" height="42" fill="none"/>
      <text id="ITEM_2_BODY" text-anchor="start" font-size="21" fill="var(--primary-text)" x="0.0" y="30.0" data-bg-id="ITEM_2_BG" style="font-size: 23px; font-family: 'Segoe UI Variable Text', 'Aptos', 'Inter', 'Segoe UI', Helvetica, Arial, sans-serif; font-weight: 400; font-kerning: normal; font-feature-settings: &quot;kern&quot; 1, &quot;liga&quot; 1;" data-final-font-size="23">
        <tspan x="0.0" dy="40.47px">Archives reentry records including NORAD numbers and tracks</tspan>
      </text>
      <rect id="ITEM_2_BODY_FRAME" x="0" y="30" width="846" height="114" fill="none"/>
    </g>
  </g>
  <g transform="translate(960.0, 560.0)">
    <rect id="ITEM_3_BG" x="-600" y="-64" width="1200" height="184" rx="18" fill="var(--accent-3)" stroke="var(--accent-3)" filter="url(#svgb4080217-shadow)" stroke-width="3" fill-opacity="0.4"/>
    <g transform="translate(-480.0, 0.0)">
      <circle r="45" fill="var(--background)" opacity="0.3"/>
      <circle id="ITEM_3_PAD" cx="0" cy="0" r="42" fill="var(--icon-pad-bg)" stroke="var(--accent-3)" opacity="1" fill-opacity="0.9" stroke-width="2" stroke-opacity="0.72" data-badge-layer="pad"/>
      <circle id="ITEM_3_PAD_INNER" cx="0" cy="0" r="32.76" fill="var(--accent-3)" fill-opacity="0.12" stroke="none" data-badge-layer="tint"/>
      <circle cx="0" cy="0" r="34" fill="none" stroke="var(--accent-2)" stroke-width="3" stroke-dasharray="6 4" display="none" data-suppressed-decoration="redundant-badge-ring"/>
      <g id="ITEM_3_ICON" transform="translate(-34, -34)" data-icon-size="68" stroke-linecap="round" stroke-linejoin="round" data-badge-treatment="clean">
        <g transform="translate(-2.2666666666666657,-2.2666666666666666) scale(0.14166666666666666)" vector-effect="non-scaling-stroke" fill="#f1f5f9" fill-opacity="1.0" stroke="none">
          <path fill="#f1f5f9" d="M254.84 255.64a127.867 127.867 0 1 0 61.614 76.03a127.04 127.04 0 0 0-61.615-76.03zm-31.233 212.62a103.9 103.9 0 0 1-79.58-8.33a104.52 104.52 0 1 1 79.58 8.33m54.65-125.248a87.963 87.963 0 1 0-59.328 109.373a87.414 87.414 0 0 0 59.327-109.373zm-37.1 38.962a8.28 8.28 0 0 1-9.56 6.747l-37.256-6.436a8 8 0 0 1-.827-.186h-.124a8 8 0 0 1-.88-.32l-.24-.104a8 8 0 0 1-.9-.487h-.07l-59.174-37.244a8.28 8.28 0 0 1 8.817-14.012l57.755 36.324l35.67 6.158a8.28 8.28 0 0 1 6.76 9.562zm164.75-76.838c10.09 34.016 15.046 67.203 13.94 93.478c-1.12 26.69-8.156 38.176-14.365 40.018c-6.21 1.842-18.368-3.943-33.87-25.706c-15.244-21.42-29.194-51.95-39.325-85.955c-22.53-75.947-14.933-128.942.424-133.495c15.36-4.553 50.668 35.703 73.197 111.66zm-25.8-95.517a137 137 0 0 0-12.914-15.772q13.712 4.625 26.42 16.65c19.124 18.13 35.33 48.71 44.498 83.886c8.963 34.512 10.35 69.884 3.85 97.06a100 100 0 0 1-6.405 18.523c.362-3.322.632-6.86.797-10.67c1.17-28.044-4.015-63.126-14.612-98.88s-25.354-67.98-41.632-90.798zM357.104 16.1h-16.868v.125a8.77 8.77 0 0 1-.518 6.737a8.77 8.77 0 0 1-5.174 4.398a8.84 8.84 0 0 1-11.125-5.65l-1.748-5.61h-17.417l3.508 10.743c.094.29.218.56.322.838a25.17 25.17 0 0 0-11.456 10.35l-11.383 19.662a25.3 25.3 0 0 0-3.322 10.576a25.5 25.5 0 0 0-7.864 1.263l-19.662 6.437a25.2 25.2 0 0 0-7.358-11.59l-16.92-15.16a25.2 25.2 0 0 0-18.327-6.458a26 26 0 0 0-2.992.34a25.426 25.426 0 0 0-24.464-18.627H161.64a25.416 25.416 0 0 0-25.096 21.64a25.6 25.6 0 0 0-5.38.175a25.22 25.22 0 0 0-16.755 9.84l-13.692 18.11a25.416 25.416 0 0 0 3.177 34.08a25.36 25.36 0 0 0-4.036 22.435l6.456 21.732a25.24 25.24 0 0 0 9.17 13.11a32.267 32.267 0 0 0 25.933 51.496h1.19l4.273 14.395a152 152 0 0 1 5.91-1.904q4.738-1.406 9.51-2.472l-4.316-14.56a32.267 32.267 0 0 0-3.912-57.394a25.27 25.27 0 0 0 .962-17.075l-6.457-21.733a25.24 25.24 0 0 0-7.244-11.55l13.63-18.036a25.2 25.2 0 0 0 4.842-11.517c.62 0 1.252.072 1.883.072h22.706a25.4 25.4 0 0 0 4.346-.382a25.2 25.2 0 0 0 7.513 12.138l16.807 15.12a25.28 25.28 0 0 0 16.94 6.48a25.6 25.6 0 0 0 6.002-.726c.062.228.124.445.197.673a25.43 25.43 0 0 0 24.103 17.51a25.5 25.5 0 0 0 7.906-1.273l21.576-7.047a25.42 25.42 0 0 0 17.447-22.022a25.5 25.5 0 0 0 6.56-.88a25.2 25.2 0 0 0 15.41-11.828l11.384-19.662a25.33 25.33 0 0 0 1.83-21.37A25.44 25.44 0 0 0 357.104 16.1M122.19 147.808l-6.457-21.732a8.745 8.745 0 0 1 7.027-11.207c.414 0 .828-.063 1.242-.114h.186a8.84 8.84 0 0 1 8.465 6.312l6.458 21.732a8.817 8.817 0 0 1-4.987 10.618q-.946.217-1.894.497l-.415.134a8.84 8.84 0 0 1-9.603-6.24zm19.23 21.308a15.875 15.875 0 1 1-5.465 1.035a26 26 0 0 0 1.914-.487l.796-.26a15.7 15.7 0 0 1 2.773-.288zm.237-92.382l-13.64 18.12a8.78 8.78 0 0 1-5.474 3.353c-.497 0-1.035.083-1.5.145a8.817 8.817 0 0 1-7.11-14.124l13.69-18.11a8.827 8.827 0 1 1 14.034 10.617zm50.594-23.036q-.61.89-1.148 1.81a8.8 8.8 0 0 1-6.8 3.21H161.64a8.827 8.827 0 1 1 0-17.645h22.704a8.807 8.807 0 0 1 7.948 12.625zm44.334 35.496a8.817 8.817 0 0 1-12.418.673l-16.89-15.16a8.83 8.83 0 0 1-2.07-10.35q.57-.828 1.036-1.697c.103-.125.196-.26.31-.384a8.84 8.84 0 0 1 12.42-.672l16.898 15.17a8.817 8.817 0 0 1 .766 12.42zm53.202 8.486a8.77 8.77 0 0 1-5.175 4.397l-21.493 7.058a8.827 8.827 0 1 1-5.484-16.775l21.587-7.048a8.827 8.827 0 0 1 10.607 12.377zm36.416-42.513L314.82 74.83A8.827 8.827 0 0 1 299.533 66l11.383-19.662a8.843 8.843 0 1 1 15.327 8.827z" vector-effect="non-scaling-stroke" stroke="none"/>
        </g>
      </g>
    </g>
    <g transform="translate(-330, -34)">
      <text id="ITEM_3_HEAD" text-anchor="start" font-weight="bold" font-size="29" fill="var(--primary-text)" x="0.0" y="-10.0" data-bg-id="ITEM_3_BG" fill-opacity="1.0" stroke="none" style="font-size: 31px; font-family: 'Segoe UI Variable Display', 'Aptos Display', 'Inter', 'Segoe UI', Helvetica, Arial, sans-serif; font-weight: 700; font-kerning: normal; font-feature-settings: &quot;kern&quot; 1, &quot;liga&quot; 1; letter-spacing:-0.4px;" data-final-font-size="31">
        <tspan x="0.0" dy="33.30px">Satellite Reentry Watch</tspan>
      </text>
      <rect id="ITEM_3_HEAD_FRAME" x="0" y="-10" width="846" height="42" fill="none"/>
      <text id="ITEM_3_BODY" text-anchor="start" font-size="21" fill="var(--primary-text)" x="0.0" y="30.0" data-bg-id="ITEM_3_BG" style="font-size: 23px; font-family: 'Segoe UI Variable Text', 'Aptos', 'Inter', 'Segoe UI', Helvetica, Arial, sans-serif; font-weight: 400; font-kerning: normal; font-feature-settings: &quot;kern&quot; 1, &quot;liga&quot; 1;" data-final-font-size="23">
        <tspan x="0.0" dy="40.47px">Archives identified reentries with times and locations</tspan>
      </text>
      <rect id="ITEM_3_BODY_FRAME" x="0" y="30" width="846" height="114" fill="none"/>
    </g>
  </g>
  <g transform="translate(960.0, 730.0)">
    <rect id="ITEM_4_BG" x="-600" y="-64" width="1200" height="184" rx="18" fill="var(--accent-1)" stroke="var(--accent-4)" filter="url(#svgb4080217-shadow)" stroke-width="3" fill-opacity="0.4"/>
    <g transform="translate(-480.0, 0.0)">
      <circle r="45" fill="var(--background)" opacity="0.3"/>
      <circle id="ITEM_4_PAD" cx="0" cy="0" r="42" fill="var(--icon-pad-bg)" stroke="var(--accent-1)" opacity="1" fill-opacity="0.9" stroke-width="2" stroke-opacity="0.72" data-badge-layer="pad"/>
      <circle id="ITEM_4_PAD_INNER" cx="0" cy="0" r="32.76" fill="var(--accent-1)" fill-opacity="0.12" stroke="none" data-badge-layer="tint"/>
      <circle cx="0" cy="0" r="34" fill="none" stroke="var(--accent-3)" stroke-width="3" stroke-dasharray="6 4" display="none" data-suppressed-decoration="redundant-badge-ring"/>
      <g id="ITEM_4_ICON" transform="translate(-34, -34)" data-icon-size="68" stroke-linecap="round" stroke-linejoin="round" data-badge-treatment="clean">
        <g transform="translate(-5.811965811965812,-4.068376068376069) scale(0.1452991452991453)" vector-effect="non-scaling-stroke" fill="#f1f5f9" fill-opacity="1.0" stroke="none">
          <path fill="#f1f5f9" d="M227.47 31.47c-67.048 70.547-83.972 178.936-32.907 267.467c51.07 88.544 153.333 128.083 247.906 105.22l-215-372.688zm232.81 82.155a31.1 31.1 0 0 0-14.81 4.188c-11.303 6.53-17.02 19.035-15.44 31.218l-96.31 29.25l34.842 60.345L442 169.812c9.755 7.504 23.456 8.826 34.78 2.282c14.992-8.663 20.117-27.822 11.47-42.813c-5.945-10.305-16.856-15.948-27.97-15.655zm-311.874 107.5l-26.656 4.688l10.688 60.53l-42.063 39.376l18.688 32.124l58.656-17.813l3.155 4.158L53.53 493.094h78.345l85.344-21.53l52.686 21.53h50.563l-7.064-45.78l.813-.22l-.97-.625l-4.75-30.72c-6.82-2.366-13.532-5.066-20.125-8.03l3.844 24.967l-51-33.437l18.75-6.594a241 241 0 0 1-19.033-13.125l-19.375 6.814l-39.625-26l5.813-7.375l15.156-9.658a242.3 242.3 0 0 1-24.53-35.03c-16-27.74-25.828-57.3-29.97-87.157zm21.906 153.97l29.094 19.06l-61.062 21.5l31.97-40.56zm48.72 31.967l49.343 32.344l-49.78 12.563l-58.845-24.033l59.28-20.875zm-94.813 26.532l5.718 2.312l58.125 23.75L82.75 486.22l41.47-52.626zm170.968 18.312l5.187 33.438l-52.625-21.47l45.813-11.562z" vector-effect="non-scaling-stroke" stroke="none"/>
        </g>
      </g>
    </g>
    <g transform="translate(-330, -34)">
      <text id="ITEM_4_HEAD" text-anchor="start" font-weight="bold" font-size="29" fill="var(--primary-text)" x="0.0" y="-10.0" data-bg-id="ITEM_4_BG" fill-opacity="1.0" stroke="none" style="font-size: 31px; font-family: 'Segoe UI Variable Display', 'Aptos Display', 'Inter', 'Segoe UI', Helvetica, Arial, sans-serif; font-weight: 700; font-kerning: normal; font-feature-settings: &quot;kern&quot; 1, &quot;liga&quot; 1; letter-spacing:-0.4px;" data-final-font-size="31">
        <tspan x="0.0" dy="33.30px">Weather Radar Systems</tspan>
      </text>
      <rect id="ITEM_4_HEAD_FRAME" x="0" y="-10" width="846" height="42" fill="none"/>
      <text id="ITEM_4_BODY" text-anchor="start" font-size="21" fill="var(--primary-text)" x="0.0" y="30.0" data-bg-id="ITEM_4_BG" style="font-size: 23px; font-family: 'Segoe UI Variable Text', 'Aptos', 'Inter', 'Segoe UI', Helvetica, Arial, sans-serif; font-weight: 400; font-kerning: normal; font-feature-settings: &quot;kern&quot; 1, &quot;liga&quot; 1;" data-final-font-size="23">
        <tspan x="0.0" dy="40.47px">Detects falling material and fragmentation signatures in atmosphere</tspan>
      </text>
      <rect id="ITEM_4_BODY_FRAME" x="0" y="30" width="846" height="114" fill="none"/>
    </g>
  </g>
  <g transform="translate(960.0, 900.0)">
    <rect id="ITEM_5_BG" x="-600" y="-64" width="1200" height="184" rx="18" fill="var(--accent-2)" stroke="var(--accent-5)" filter="url(#svgb4080217-shadow)" stroke-width="3" fill-opacity="0.4"/>
    <g transform="translate(-480.0, 0.0)">
      <circle r="45" fill="var(--background)" opacity="0.3"/>
      <circle id="ITEM_5_PAD" cx="0" cy="0" r="42" fill="var(--icon-pad-bg)" stroke="var(--accent-2)" opacity="1" fill-opacity="0.9" stroke-width="2" stroke-opacity="0.72" data-badge-layer="pad"/>
      <circle id="ITEM_5_PAD_INNER" cx="0" cy="0" r="32.76" fill="var(--accent-2)" fill-opacity="0.12" stroke="none" data-badge-layer="tint"/>
      <circle cx="0" cy="0" r="34" fill="none" stroke="var(--accent-4)" stroke-width="3" stroke-dasharray="6 4" display="none" data-suppressed-decoration="redundant-badge-ring"/>
      <g id="ITEM_5_ICON" transform="translate(-34, -34)" data-icon-size="68" stroke-linecap="round" stroke-linejoin="round" data-badge-treatment="clean">
        <g transform="translate(-2.88135593220339,-2.88135593220339) scale(3.073446327683616)" vector-effect="non-scaling-stroke" stroke-width="2.53" stroke-linecap="round" stroke-linejoin="round" stroke-opacity="1.0">
          <rect x="16" y="16" width="6" height="6" rx="1" vector-effect="non-scaling-stroke" fill="none" stroke="#f1f5f9"/>
          <rect x="2" y="16" width="6" height="6" rx="1" vector-effect="non-scaling-stroke" fill="none" stroke="#f1f5f9"/>
          <rect x="9" y="2" width="6" height="6" rx="1" vector-effect="non-scaling-stroke" fill="none" stroke="#f1f5f9"/>
          <path d="M5 16v-3a1 1 0 0 1 1-1h12a1 1 0 0 1 1 1v3" vector-effect="non-scaling-stroke" fill="none" stroke="#f1f5f9"/>
          <path d="M12 12V8" vector-effect="non-scaling-stroke" fill="none" stroke="#f1f5f9"/>
        </g>
      </g>
    </g>
    <g transform="translate(-330, -34)">
      <text id="ITEM_5_HEAD" text-anchor="start" font-weight="bold" font-size="29" fill="var(--primary-text)" x="0.0" y="-10.0" data-bg-id="ITEM_5_BG" fill-opacity="1.0" stroke="none" style="font-size: 31px; font-family: 'Segoe UI Variable Display', 'Aptos Display', 'Inter', 'Segoe UI', Helvetica, Arial, sans-serif; font-weight: 700; font-kerning: normal; font-feature-settings: &quot;kern&quot; 1, &quot;liga&quot; 1; letter-spacing:-0.4px;" data-final-font-size="31">
        <tspan x="0.0" dy="33.30px">Ground-Based Optical Networks</tspan>
      </text>
      <rect id="ITEM_5_HEAD_FRAME" x="0" y="-10" width="846" height="42" fill="none"/>
      <text id="ITEM_5_BODY" text-anchor="start" font-size="21" fill="var(--primary-text)" x="0.0" y="30.0" data-bg-id="ITEM_5_BG" style="font-size: 23px; font-family: 'Segoe UI Variable Text', 'Aptos', 'Inter', 'Segoe UI', Helvetica, Arial, sans-serif; font-weight: 400; font-kerning: normal; font-feature-settings: &quot;kern&quot; 1, &quot;liga&quot; 1;" data-final-font-size="23">
        <tspan x="0.0" dy="40.47px">Uses fireball networks to reconstruct trajectories from video</tspan>
      </text>
      <rect id="ITEM_5_BODY_FRAME" x="0" y="30" width="846" height="114" fill="none"/>
    </g>
  </g>
  <text id="SOURCE_NOTE" x="134.0" y="1058.0" fill="var(--muted-text)" opacity="1" style="font-family: var(--font-family); font-size: 20px;">Source: ARESARES | Meteorite Falls | Yakima, WA Debris De-Orbit</text>
</svg>
