<?xml version='1.0' encoding='utf-8'?>
<svg xmlns="http://www.w3.org/2000/svg" width="1920" height="1080" viewBox="0 0 1920 1080" data-theme="light" data-semantic-intent="sequence" data-relation-type="sequence" data-site-visual-identity="signal-cobalt">
  <style>
        @font-face {
            font-family: 'Inter';
            src: url('assets/fonts/Inter-Regular.ttf') format('truetype');
            font-weight: 400;
            font-style: normal;
            font-display: swap;
        }
        @font-face {
            font-family: 'Inter';
            src: url('assets/fonts/Inter-Bold.ttf') format('truetype');
            font-weight: 600;
            font-style: normal;
            font-display: swap;
        }
        @font-face {
            font-family: 'Inter';
            src: url('assets/fonts/Inter-Bold.ttf') format('truetype');
            font-weight: 800;
            font-style: normal;
            font-display: swap;
        }
        
:root {
    --background: #f8fafc;
    --panel: #ffffff;
    --primary-text: #0f172a;
    --muted-text: #64748b;
    --inverse-text: #ffffff;
    --border: #e2e8f0;
    --shadow-color: #000000;
    --icon-pad-bg: #1e293b;
    --art-glow: #0891b2;
    --art-glow-opacity: 0.10;
    --art-sheen: #ffffff;
    --art-sheen-opacity: 0.34;
    --art-shadow: #0f172a;
    --art-shadow-opacity: 0.14;
    --art-muted-line: #94a3b8;
    --art-panel-tint: #f1f5f9;
    --semantic-risk: #b91c1c;
    --semantic-warning: #c2410c;
    --semantic-uncertain: #a16207;
    --semantic-evidence: #1d4ed8;
    --semantic-claim: #6d28d9;
    --semantic-positive: #15803d;
    --semantic-outcome: #0e7490;
    --font-family: 'Inter', 'Segoe UI', 'Kalam', Roboto, Helvetica, Arial, sans-serif;
    --radius-xl: 16px;
    --font-family-headline: 'Segoe UI Variable Display', 'Aptos Display', 'Inter', 'Segoe UI', Helvetica, Arial, sans-serif;
    --font-family-body: 'Segoe UI Variable Text', 'Aptos', 'Inter', 'Segoe UI', Helvetica, Arial, sans-serif;
    --font-heading: var(--font-family-headline);
    --font-body: var(--font-family-body);
    --font-size-h1: 64px;
    --font-size-h2: 42px;
    --font-size-h3: 29px;
    --font-size-body: 21px;
    --font-size-caption: 17px;
    --secondary-text: var(--muted-text);
    --panel-border: var(--border);
    --font-weight-normal: 400;
    --font-weight-medium: 500;
    --font-weight-semibold: 600;
    --font-weight-bold: 700;
    --spacing-gutter-pct: 0.07;
    --spacing-top-pct: 0.15;
    --spacing-bottom-pct: 0.07;
    --spacing-title-y-pct: 0.055;
    --accent-1: #1d4ed8;
    --accent-2: #2563eb;
    --accent-3: #4f46e5;
    --accent-4: #6d28d9;
    --accent-5: #0369a1;
    --accent-6: #c2410c;
}
:root[data-theme="dark"] {
    --background: #0f172a;
    --panel: #1e293b;
    --primary-text: #f1f5f9;
    --muted-text: #94a3b8;
    --inverse-text: #0f172a;
    --border: #334155;
    --shadow-color: #000000;
    --icon-pad-bg: #1e293b;
    --art-glow: #7dd3fc;
    --art-glow-opacity: 0.18;
    --art-sheen: #ffffff;
    --art-sheen-opacity: 0.18;
    --art-shadow: #000000;
    --art-shadow-opacity: 0.28;
    --art-muted-line: #64748b;
    --art-panel-tint: #1e293b;
    --semantic-risk: #f87171;
    --semantic-warning: #fb923c;
    --semantic-uncertain: #fbbf24;
    --semantic-evidence: #60a5fa;
    --semantic-claim: #c084fc;
    --semantic-positive: #4ade80;
    --semantic-outcome: #22d3ee;
    --accent-1: #93c5fd;
    --accent-2: #60a5fa;
    --accent-3: #818cf8;
    --accent-4: #a78bfa;
    --accent-5: #38bdf8;
    --accent-6: #fb923c;
}
:root[data-theme="light"] {
    --background: #f8fafc;
    --panel: #ffffff;
    --primary-text: #0f172a;
    --muted-text: #64748b;
    --inverse-text: #ffffff;
    --border: #e2e8f0;
    --shadow-color: #000000;
    --icon-pad-bg: #1e293b;
    --art-glow: #0891b2;
    --art-glow-opacity: 0.10;
    --art-sheen: #ffffff;
    --art-sheen-opacity: 0.34;
    --art-shadow: #0f172a;
    --art-shadow-opacity: 0.14;
    --art-muted-line: #94a3b8;
    --art-panel-tint: #f1f5f9;
    --semantic-risk: #b91c1c;
    --semantic-warning: #c2410c;
    --semantic-uncertain: #a16207;
    --semantic-evidence: #1d4ed8;
    --semantic-claim: #6d28d9;
    --semantic-positive: #15803d;
    --semantic-outcome: #0e7490;
    --accent-1: #1d4ed8;
    --accent-2: #2563eb;
    --accent-3: #4f46e5;
    --accent-4: #6d28d9;
    --accent-5: #0369a1;
    --accent-6: #c2410c;
}</style>
  <rect x="0" y="0" width="1.92E+3" height="1.08E+3" fill="#f8fafc" stroke="none" id="programmatic_background"/>
  <line id="HEADER_DECOR" x1="960.0" x2="1080.0" y1="135.0" y2="135.0" stroke="var(--accent-1)" stroke-width="6" stroke-linecap="round"/>
  <defs>
    <pattern id="svg3aecad6f-napkin-hatch" patternUnits="userSpaceOnUse" width="12" height="12">
      <path d="M -3 12 L 12 -3 M 0 15 L 15 0" fill="none" stroke="var(--primary-text)" stroke-width="1" stroke-opacity="0.05"/>
    </pattern>
    <filter id="svg3aecad6f-shadow" x="-30%" y="-30%" width="160%" height="160%">
      <feDropShadow dx="0" dy="2" stdDeviation="3" flood-color="#000000" flood-opacity="0.08"/>
      <feDropShadow dx="0" dy="6" stdDeviation="10" flood-color="#000000" flood-opacity="0.12"/>
    </filter>
    <radialGradient id="svg3aecad6f-universal-edge-vignette" cx="50%" cy="50%" r="72%">
      <stop offset="0%" stop-color="var(--background)" stop-opacity="0"/>
      <stop offset="72%" stop-color="var(--background)" stop-opacity="0.12"/>
      <stop offset="100%" stop-color="var(--primary-text)" stop-opacity="0.08"/>
    </radialGradient>
    <linearGradient id="svg3aecad6f-universal-surface-sheen" x1="0%" y1="0%" x2="100%" y2="100%">
      <stop offset="0%" stop-color="var(--art-sheen)" stop-opacity="var(--art-sheen-opacity)"/>
      <stop offset="46%" stop-color="var(--art-sheen)" stop-opacity="0.035"/>
      <stop offset="100%" stop-color="var(--art-panel-tint)" stop-opacity="0.14"/>
    </linearGradient>
    <radialGradient id="svg3aecad6f-universal-icon-aura" cx="50%" cy="42%" r="64%">
      <stop offset="0%" stop-color="var(--art-glow)" stop-opacity="var(--art-glow-opacity)"/>
      <stop offset="100%" stop-color="var(--background)" stop-opacity="0"/>
    </radialGradient>
    <filter id="svg3aecad6f-text-glow" x="-20%" y="-20%" width="140%" height="140%">
      <feDropShadow dx="0" dy="0" stdDeviation="2" flood-color="#000000" flood-opacity="0.4"/>
    </filter>
    <marker id="svg3aecad6f-arrowhead" markerWidth="10" markerHeight="7" refX="9" refY="3.5" orient="auto" markerUnits="strokeWidth">
      <polygon points="0 0, 10 3.5, 0 7" fill="var(--muted-text)" opacity="0.6"/>
    </marker>
    <marker id="svg3aecad6f-PHX_SEQUENCE_DIRECTION_ARROW" markerWidth="18" markerHeight="18" refX="16" refY="9" orient="auto" markerUnits="userSpaceOnUse">
      <path d="M 0 0 L 18 9 L 0 18 Z" fill="var(--muted-text)" opacity="0.9"/>
    </marker>
  </defs>
  <rect width="100%" height="100%" fill="var(--background)" id="CANVAS_BG"/>
  <rect width="100%" height="100%" fill="url(#svg3aecad6f-napkin-hatch)"/>
  <rect id="UNIVERSAL_EDGE_VIGNETTE" width="100%" height="100%" fill="url(#svg3aecad6f-universal-edge-vignette)" opacity="0.62"/>
  <text id="TITLE" x="960.0" y="59" text-anchor="middle" font-size="63" font-weight="700" fill="#0f172a" style="font-size: 69px; font-family: 'Segoe UI Variable Display', 'Aptos Display', 'Inter', 'Segoe UI', Helvetica, Arial, sans-serif; font-weight: 800; font-kerning: normal; font-feature-settings: &quot;kern&quot; 1, &quot;liga&quot; 1; letter-spacing:-1.2px;" data-final-font-size="69">
    <tspan x="960.0" dy="70.47px">Falcon 9 Launch Key Stages Mechanics</tspan>
  </text>
  <rect id="TITLE_FRAME" x="134" y="59" width="1652" height="103" fill="none"/>
  <g id="DIAGRAM_SCALER">
    <line x1="960" y1="210" x2="960" y2="940" stroke="var(--border)" stroke-width="20" stroke-linecap="round" opacity="0.1" marker-end="url(#svg3aecad6f-PHX_SEQUENCE_DIRECTION_ARROW)" data-direction-cue="forward"/>
    <line x1="960" y1="210" x2="960" y2="940" stroke="var(--muted-text)" stroke-width="7" stroke-linecap="round" opacity="0.48"/>
    <circle cx="960" cy="210" r="10" fill="var(--border)" opacity="0.35"/>
    <path d="M 960 972 L 980 940 L 940 940 Z" fill="var(--muted-text)" opacity="0.5"/>
    <g transform="translate(960, 260)">
      <circle cx="0" cy="0" r="18" fill="var(--panel)" stroke="var(--border)" stroke-width="4"/>
      <circle cx="0" cy="0" r="7" fill="var(--accent-1)"/>
      <line x1="0" y1="0" x2="220" y2="0" stroke="var(--accent-1)" stroke-width="16" stroke-linecap="round" opacity="0.18"/>
      <line x1="0" y1="0" x2="220" y2="0" stroke="var(--accent-1)" stroke-width="4" stroke-linecap="round"/>
      <circle cx="220" cy="0" r="72" fill="var(--accent-1)" opacity="0.14"/>
      <circle id="ITEM_1_NODE" cx="220" cy="0" r="56" fill="var(--panel)" stroke="var(--accent-1)" stroke-width="2" stroke-opacity="0.58" data-badge-layer="outline"/>
      <circle id="ITEM_1_PAD" cx="220" cy="0" r="50" fill="var(--icon-pad-bg)" stroke="var(--accent-1)" opacity="1" fill-opacity="0.9" stroke-width="2" stroke-opacity="0.72" data-badge-layer="pad"/>
      <circle id="ITEM_1_PAD_INNER" cx="220" cy="0" r="39.00" fill="var(--accent-1)" fill-opacity="0.12" stroke="none" data-badge-layer="tint"/>
      <circle cx="220" cy="0" r="40" fill="none" stroke="var(--accent-1)" stroke-width="3" stroke-dasharray="6 4" display="none" data-suppressed-decoration="redundant-badge-ring"/>
      <g id="ITEM_1_ICON" transform="translate(188, -32)" data-icon-size="64" stroke-linecap="round" stroke-linejoin="round" data-badge-treatment="clean">
        <g transform="translate(-12.52212389380531,-14.93805309734513) scale(2.7610619469026547)">
          <path d="M20 9L22 6H27V9H30V15L22 16L14 15L15.5646 9.43999C15.6335 9.17999 15.8696 9 16.1353 9H20Z" fill="#CDC4D6"/>
          <path d="M22 16H30V23L17 26L4 23L2.03838 17.2837C1.85708 16.6418 2.34056 16 3.01543 16H22Z" fill="#CDC4D6"/>
          <path d="M24.66 12.99H25.33C25.7 12.99 25.99 12.69 25.99 12.33V11.66C25.99 11.29 25.69 11 25.33 11H24.66C24.29 11 24 11.3 24 11.66V12.33C24 12.7 24.29 12.99 24.66 12.99Z" fill="#26EAFC"/>
          <path d="M4 23L5.801 29.2731C5.9204 29.7013 6.31841 30 6.76617 30H28.995C29.5522 30 30 29.5519 30 29.0043V23H4Z" fill="#CA0B4A"/>
          <path d="M21 11C21.54 11 22 11 22 12C22 12.9821 21.5563 12.99 21.0289 12.9995L21 13H14.5665L15.1242 11H21Z" fill="#00A6ED"/>
          <path d="M15.3362 21H14.6638C14.3017 21 14 20.6983 14 20.3362V19.6638C14 19.3017 14.2931 19 14.6638 19H15.3362C15.6983 19 16 19.2931 16 19.6638V20.3362C16 20.6983 15.7069 21 15.3362 21Z" fill="#00A6ED"/>
          <path d="M18.6638 21H19.3362C19.7069 21 20 20.6983 20 20.3362V19.6638C20 19.2931 19.6983 19 19.3362 19H18.6638C18.2931 19 18 19.3017 18 19.6638V20.3362C18 20.6983 18.2931 21 18.6638 21Z" fill="#00A6ED"/>
          <path d="M23.3362 21H22.6638C22.2931 21 22 20.6983 22 20.3362V19.6638C22 19.3017 22.2931 19 22.6638 19H23.3362C23.6983 19 24 19.2931 24 19.6638V20.3362C24 20.6983 23.7069 21 23.3362 21Z" fill="#00A6ED"/>
          <path d="M26.6638 21H27.3362C27.7069 21 28 20.6983 28 20.3362V19.6638C28 19.2931 27.6983 19 27.3362 19H26.6638C26.2931 19 26 19.3017 26 19.6638V20.3362C26 20.6983 26.2931 21 26.6638 21Z" fill="#00A6ED"/>
          <path d="M25.33 12.99H24.66C24.29 12.99 24 12.7 24 12.33V11.66C24 11.3 24.29 11 24.66 11H25.33C25.69 11 25.99 11.29 25.99 11.66V12.33C25.99 12.69 25.7 12.99 25.33 12.99Z" fill="#00A6ED"/>
          <path d="M30.01 27.6699C28.26 27.6699 28.26 28.7899 26.5 28.7899C24.75 28.7899 24.75 27.6699 22.99 27.6699C21.24 27.6699 21.24 28.7899 19.49 28.7899C17.74 28.7899 17.74 27.6699 15.99 27.6699C14.24 27.6699 14.24 28.7899 12.49 28.7899C10.74 28.7899 10.74 27.6699 8.99 27.6699C7.24 27.6699 7.24 28.7899 5.5 28.7899C3.75 28.7899 3.75 27.6699 2 27.6699V29.9899H30L30.01 27.6699Z" fill="#00A6ED"/>
          <path d="M26.5962 4C26.8077 4 26.9904 4.18091 26.9904 4.41206H27V6H22L22.6635 4.84422C22.9615 4.3216 23.5096 4 24.0962 4H26.5962Z" fill="#533566"/>
          <path d="M5 16H30V15H5.58C5.26 15 5 15.2626 5 15.5859V16Z" fill="#533566"/>
        </g>
      </g>
      <g transform="translate(332, 0)">
        <path id="ITEM_1_TEXT_BG" d="M -26 -50 L 378 -50 L 420 -10 L 420 148 L 34 148 L -50 86 L -50 18 Z" fill="var(--panel)" fill-opacity="0.96" stroke="var(--primary-text)" stroke-opacity="0.12" stroke-width="1.5" filter="url(#svg3aecad6f-shadow)"/>
        <rect x="392" y="-30" width="10" height="110" rx="5" fill="var(--accent-1)" opacity="0.7"/>
        <line x1="24" y1="10" x2="354" y2="10" stroke="var(--accent-1)" stroke-width="3" opacity="0.3"/>
        <text id="ITEM_1_HEAD" data-bg-id="ITEM_1_TEXT_BG" font-weight="700" font-size="32" fill="var(--accent-1)" x="24.0" y="-30.0" fill-opacity="1.0" style="font-size: 31px; font-family: 'Segoe UI Variable Display', 'Aptos Display', 'Inter', 'Segoe UI', Helvetica, Arial, sans-serif; font-weight: 700; font-kerning: normal; font-feature-settings: &quot;kern&quot; 1, &quot;liga&quot; 1; letter-spacing:-0.4px;" data-final-font-size="31">
          <tspan x="24.0" dy="26.52px">Initial Ascent</tspan>
        </text>
        <rect id="ITEM_1_HEAD_FRAME" x="24" y="-30" width="338" height="36" fill="none"/>
        <text id="ITEM_1_BODY" data-bg-id="ITEM_1_TEXT_BG" font-size="22" fill="var(--primary-text)" opacity="0.92" x="24.0" y="24.0" style="font-size: 23px; font-family: 'Segoe UI Variable Text', 'Aptos', 'Inter', 'Segoe UI', Helvetica, Arial, sans-serif; font-weight: 400; font-kerning: normal; font-feature-settings: &quot;kern&quot; 1, &quot;liga&quot; 1;" data-final-font-size="23">
          <tspan x="24.0" dy="23.42px">First stage provides primary</tspan>
          <tspan x="24.0" dy="26.45px">thrust for vertical climb</tspan>
        </text>
        <rect id="ITEM_1_BODY_FRAME" x="24" y="24" width="356" height="78" fill="none"/>
      </g>
    </g>
    <g transform="translate(960, 440)">
      <circle cx="0" cy="0" r="18" fill="var(--panel)" stroke="var(--border)" stroke-width="4"/>
      <circle cx="0" cy="0" r="7" fill="var(--accent-2)"/>
      <line x1="0" y1="0" x2="-220" y2="0" stroke="var(--accent-2)" stroke-width="16" stroke-linecap="round" opacity="0.18"/>
      <line x1="0" y1="0" x2="-220" y2="0" stroke="var(--accent-2)" stroke-width="4" stroke-linecap="round"/>
      <circle cx="-220" cy="0" r="72" fill="var(--accent-2)" opacity="0.14"/>
      <circle id="ITEM_2_NODE" cx="-220" cy="0" r="56" fill="var(--panel)" stroke="var(--accent-2)" stroke-width="2" stroke-opacity="0.58" data-badge-layer="outline"/>
      <circle id="ITEM_2_PAD" cx="-220" cy="0" r="50" fill="var(--icon-pad-bg)" stroke="var(--accent-2)" opacity="1" fill-opacity="0.9" stroke-width="2" stroke-opacity="0.72" data-badge-layer="pad"/>
      <circle id="ITEM_2_PAD_INNER" cx="-220" cy="0" r="39.00" fill="var(--accent-2)" fill-opacity="0.12" stroke="none" data-badge-layer="tint"/>
      <circle cx="-220" cy="0" r="40" fill="none" stroke="var(--accent-2)" stroke-width="3" stroke-dasharray="6 4" display="none" data-suppressed-decoration="redundant-badge-ring"/>
      <g id="ITEM_2_ICON" transform="translate(-252, -32)" data-icon-size="64" stroke-linecap="round" stroke-linejoin="round" data-badge-treatment="clean">
        <g transform="translate(-12.571428571428571,-12.571428571428571) scale(2.7857142857142856)">
          <path d="M3.2359 5.89697L6.00835 8.66735C6.26317 8.92198 6.66069 8.92198 6.91551 8.66735L8.66867 6.91549C8.92349 6.66086 8.92349 6.26364 8.66867 6.00901L5.89623 3.23862C5.53948 2.88214 5.71276 2.28121 6.19182 2.15899C7.96537 1.72102 9.92239 2.18954 11.329 3.54418C12.8928 5.05575 13.3617 7.28456 12.7243 9.22843L22.7212 19.2909C24.6418 18.6406 26.8528 19.0802 28.387 20.6132C29.7936 22.0188 30.2828 24.0049 29.8445 25.8178C29.7222 26.2864 29.1208 26.4595 28.7641 26.103L25.9917 23.3326C25.7368 23.078 25.3393 23.078 25.0845 23.3326L23.3313 25.0845C23.0765 25.3391 23.0765 25.7364 23.3313 25.991L26.1038 28.7614C26.4605 29.1179 26.2872 29.7188 25.8082 29.841C24.0346 30.279 22.0776 29.8105 20.671 28.4558C19.1243 26.9608 18.6487 24.7642 19.2552 22.8355L9.2093 12.7321C7.30512 13.3486 5.12872 12.9014 3.61304 11.3868C2.20643 9.98124 1.71717 7.99512 2.15546 6.18215C2.27778 5.71363 2.87915 5.54048 3.2359 5.89697Z" fill="#B4ACBC"/>
        </g>
      </g>
      <g transform="translate(-332, 0)">
        <path id="ITEM_2_TEXT_BG" d="M 26 -50 L -378 -50 L -420 -10 L -420 148 L -34 148 L 50 86 L 50 18 Z" fill="var(--panel)" fill-opacity="0.96" stroke="var(--primary-text)" stroke-opacity="0.12" stroke-width="1.5" filter="url(#svg3aecad6f-shadow)"/>
        <rect x="-402" y="-30" width="10" height="110" rx="5" fill="var(--accent-2)" opacity="0.7"/>
        <line x1="-24" y1="10" x2="-354" y2="10" stroke="var(--accent-2)" stroke-width="3" opacity="0.3"/>
        <text id="ITEM_2_HEAD" data-bg-id="ITEM_2_TEXT_BG" text-anchor="end" font-weight="700" font-size="32" fill="var(--accent-2)" x="-24.0" y="-30.0" fill-opacity="1.0" style="font-size: 31px; font-family: 'Segoe UI Variable Display', 'Aptos Display', 'Inter', 'Segoe UI', Helvetica, Arial, sans-serif; font-weight: 700; font-kerning: normal; font-feature-settings: &quot;kern&quot; 1, &quot;liga&quot; 1; letter-spacing:-0.4px;" data-final-font-size="31">
          <tspan x="-24.0" dy="26.52px">Stage Separation</tspan>
        </text>
        <rect id="ITEM_2_HEAD_FRAME" x="-362" y="-30" width="338" height="36" fill="none"/>
        <text id="ITEM_2_BODY" data-bg-id="ITEM_2_TEXT_BG" text-anchor="end" font-size="22" fill="var(--primary-text)" opacity="0.92" x="-24.0" y="24.0" style="font-size: 23px; font-family: 'Segoe UI Variable Text', 'Aptos', 'Inter', 'Segoe UI', Helvetica, Arial, sans-serif; font-weight: 400; font-kerning: normal; font-feature-settings: &quot;kern&quot; 1, &quot;liga&quot; 1;" data-final-font-size="23">
          <tspan x="-24.0" dy="23.42px">First stage detaches to allow</tspan>
          <tspan x="-24.0" dy="26.45px">second stage ignition</tspan>
        </text>
        <rect id="ITEM_2_BODY_FRAME" x="-380" y="24" width="356" height="78" fill="none"/>
      </g>
    </g>
    <g transform="translate(960, 620)">
      <circle cx="0" cy="0" r="18" fill="var(--panel)" stroke="var(--border)" stroke-width="4"/>
      <circle cx="0" cy="0" r="7" fill="var(--accent-3)"/>
      <line x1="0" y1="0" x2="220" y2="0" stroke="var(--accent-3)" stroke-width="16" stroke-linecap="round" opacity="0.18"/>
      <line x1="0" y1="0" x2="220" y2="0" stroke="var(--accent-3)" stroke-width="4" stroke-linecap="round"/>
      <circle cx="220" cy="0" r="72" fill="var(--accent-3)" opacity="0.14"/>
      <circle id="ITEM_3_NODE" cx="220" cy="0" r="56" fill="var(--panel)" stroke="var(--accent-3)" stroke-width="2" stroke-opacity="0.58" data-badge-layer="outline"/>
      <circle id="ITEM_3_PAD" cx="220" cy="0" r="50" fill="var(--icon-pad-bg)" stroke="var(--accent-3)" opacity="1" fill-opacity="0.9" stroke-width="2" stroke-opacity="0.72" data-badge-layer="pad"/>
      <circle id="ITEM_3_PAD_INNER" cx="220" cy="0" r="39.00" fill="var(--accent-3)" fill-opacity="0.12" stroke="none" data-badge-layer="tint"/>
      <circle cx="220" cy="0" r="40" fill="none" stroke="var(--accent-3)" stroke-width="3" stroke-dasharray="6 4" display="none" data-suppressed-decoration="redundant-badge-ring"/>
      <g id="ITEM_3_ICON" transform="translate(188, -32)" data-icon-size="64" stroke-linecap="round" stroke-linejoin="round" data-badge-treatment="clean">
        <g transform="translate(-14.222222222222221,-14.222222222222221) scale(3.8518518518518516)" vector-effect="non-scaling-stroke" stroke-width="2.48" stroke-linecap="round" stroke-linejoin="round" stroke-opacity="1.0">
          <path d="M4 10a7.31 7.31 0 0 0 10 10Z" vector-effect="non-scaling-stroke" fill="none" stroke="#f1f5f9"/>
          <path d="m9 15 3-3" vector-effect="non-scaling-stroke" fill="none" stroke="#f1f5f9"/>
          <path d="M17 13a6 6 0 0 0-6-6" vector-effect="non-scaling-stroke" fill="none" stroke="#f1f5f9"/>
          <path d="M21 13A10 10 0 0 0 11 3" vector-effect="non-scaling-stroke" fill="none" stroke="#f1f5f9"/>
        </g>
      </g>
      <g transform="translate(332, 0)">
        <path id="ITEM_3_TEXT_BG" d="M -26 -50 L 378 -50 L 420 -10 L 420 148 L 34 148 L -50 86 L -50 18 Z" fill="var(--panel)" fill-opacity="0.96" stroke="var(--primary-text)" stroke-opacity="0.12" stroke-width="1.5" filter="url(#svg3aecad6f-shadow)"/>
        <rect x="392" y="-30" width="10" height="110" rx="5" fill="var(--accent-3)" opacity="0.7"/>
        <line x1="24" y1="10" x2="354" y2="10" stroke="var(--accent-3)" stroke-width="3" opacity="0.3"/>
        <text id="ITEM_3_HEAD" data-bg-id="ITEM_3_TEXT_BG" font-weight="700" font-size="32" fill="var(--accent-3)" x="24.0" y="-30.0" fill-opacity="1.0" style="font-size: 31px; font-family: 'Segoe UI Variable Display', 'Aptos Display', 'Inter', 'Segoe UI', Helvetica, Arial, sans-serif; font-weight: 700; font-kerning: normal; font-feature-settings: &quot;kern&quot; 1, &quot;liga&quot; 1; letter-spacing:-0.4px;" data-final-font-size="31">
          <tspan x="24.0" dy="26.52px">Payload Deployment</tspan>
        </text>
        <rect id="ITEM_3_HEAD_FRAME" x="24" y="-30" width="338" height="36" fill="none"/>
        <text id="ITEM_3_BODY" data-bg-id="ITEM_3_TEXT_BG" font-size="22" fill="var(--primary-text)" opacity="0.92" x="24.0" y="24.0" style="font-size: 23px; font-family: 'Segoe UI Variable Text', 'Aptos', 'Inter', 'Segoe UI', Helvetica, Arial, sans-serif; font-weight: 400; font-kerning: normal; font-feature-settings: &quot;kern&quot; 1, &quot;liga&quot; 1;" data-final-font-size="23">
          <tspan x="24.0" dy="23.42px">Fairings discard to release</tspan>
          <tspan x="24.0" dy="26.45px">satellites into orbit</tspan>
        </text>
        <rect id="ITEM_3_BODY_FRAME" x="24" y="24" width="356" height="78" fill="none"/>
      </g>
    </g>
    <g transform="translate(960, 800)">
      <circle cx="0" cy="0" r="18" fill="var(--panel)" stroke="var(--border)" stroke-width="4"/>
      <circle cx="0" cy="0" r="7" fill="var(--accent-4)"/>
      <line x1="0" y1="0" x2="-220" y2="0" stroke="var(--accent-4)" stroke-width="16" stroke-linecap="round" opacity="0.18"/>
      <line x1="0" y1="0" x2="-220" y2="0" stroke="var(--accent-4)" stroke-width="4" stroke-linecap="round"/>
      <circle cx="-220" cy="0" r="72" fill="var(--accent-4)" opacity="0.14"/>
      <circle id="ITEM_4_NODE" cx="-220" cy="0" r="56" fill="var(--panel)" stroke="var(--accent-1)" stroke-width="2" stroke-opacity="0.58" data-badge-layer="outline"/>
      <circle id="ITEM_4_PAD" cx="-220" cy="0" r="50" fill="var(--icon-pad-bg)" stroke="var(--accent-1)" opacity="1" fill-opacity="0.9" stroke-width="2" stroke-opacity="0.72" data-badge-layer="pad"/>
      <circle id="ITEM_4_PAD_INNER" cx="-220" cy="0" r="39.00" fill="var(--accent-1)" fill-opacity="0.12" stroke="none" data-badge-layer="tint"/>
      <circle cx="-220" cy="0" r="40" fill="none" stroke="var(--accent-4)" stroke-width="3" stroke-dasharray="6 4" display="none" data-suppressed-decoration="redundant-badge-ring"/>
      <g id="ITEM_4_ICON" transform="translate(-252, -32)" data-icon-size="64" stroke-linecap="round" stroke-linejoin="round" data-badge-treatment="clean">
        <g transform="translate(-12.571428571428571,-12.571428571428571) scale(2.7857142857142856)">
          <path d="M15.5 28C21.8513 28 27 22.8513 27 16.5C27 10.1487 21.8513 5 15.5 5C9.14873 5 4 10.1487 4 16.5C4 22.8513 9.14873 28 15.5 28Z" fill="#F4F4F4"/>
          <path d="M25.7663 7.73298C26.1431 7.9044 26.5609 8 27 8C28.65 8 30 6.65 30 5C30 3.35 28.65 2 27 2C25.35 2 24 3.35 24 5C24 5.43909 24.0956 5.85693 24.267 6.23373C21.9083 4.21752 18.8463 3 15.5 3C8.04416 3 2 9.04416 2 16.5C2 23.9558 8.04416 30 15.5 30C22.9558 30 29 23.9558 29 16.5C29 13.1537 27.7825 10.0917 25.7663 7.73298ZM25.39 4.99C25.39 4.1 26.11 3.38 27 3.38C27.88 3.38 28.61 4.1 28.61 4.99C28.61 5.88 27.89 6.6 27 6.6C26.11 6.6 25.39 5.88 25.39 4.99ZM26 16.5C26 22.299 21.299 27 15.5 27C9.70101 27 5 22.299 5 16.5C5 10.701 9.70101 6 15.5 6C21.299 6 26 10.701 26 16.5Z" fill="#F9C23C"/>
          <path d="M25.35 7.99994L23.99 6.63994L25.35 5.27994C25.72 4.90994 26.33 4.90994 26.71 5.27994C27.08 5.64994 27.08 6.25994 26.71 6.63994L25.35 7.99994Z" fill="#FFB02E"/>
          <path d="M13.2234 17.724L11.4099 20.21C11.2299 20.45 11.5299 20.75 11.7799 20.58L14.2735 18.7609L15.2099 24.7499C15.2599 25.0799 15.7399 25.0799 15.7899 24.7499L16.8663 17.8663L23.7499 16.7899C24.0799 16.7399 24.0799 16.2599 23.7499 16.2099L17.7609 15.2735L19.5799 12.78C19.7599 12.54 19.4599 12.24 19.2099 12.41L16.724 14.2234L15.7899 8.24994C15.7399 7.91994 15.2599 7.91994 15.2099 8.24994L14.1336 15.1336L7.24994 16.2099C6.91994 16.2599 6.91994 16.7399 7.24994 16.7899L13.2234 17.724Z" fill="#9B9B9B"/>
          <path d="M17.3382 15L20.9393 21.3271C21.1631 21.7255 20.7252 22.1629 20.3261 21.9394L14 18.3336L17.3382 15Z" fill="#9B9B9B"/>
          <path d="M13.6756 18L10.0605 11.672C9.83756 11.2741 10.2737 10.8373 10.6711 11.0606L17 14.671L13.6756 18Z" fill="#E5336D"/>
          <path d="M15.5 19C16.8807 19 18 17.8807 18 16.5C18 15.1193 16.8807 14 15.5 14C14.1193 14 13 15.1193 13 16.5C13 17.8807 14.1193 19 15.5 19Z" fill="#D3D3D3"/>
        </g>
      </g>
      <g transform="translate(-332, 0)">
        <path id="ITEM_4_TEXT_BG" d="M 26 -50 L -378 -50 L -420 -10 L -420 148 L -34 148 L 50 86 L 50 18 Z" fill="var(--panel)" fill-opacity="0.96" stroke="var(--primary-text)" stroke-opacity="0.12" stroke-width="1.5" filter="url(#svg3aecad6f-shadow)"/>
        <rect x="-402" y="-30" width="10" height="110" rx="5" fill="var(--accent-4)" opacity="0.7"/>
        <line x1="-24" y1="10" x2="-354" y2="10" stroke="var(--accent-4)" stroke-width="3" opacity="0.3"/>
        <text id="ITEM_4_HEAD" data-bg-id="ITEM_4_TEXT_BG" text-anchor="end" font-weight="700" font-size="32" fill="var(--accent-1)" x="-24.0" y="-30.0" fill-opacity="1.0" style="font-size: 31px; font-family: 'Segoe UI Variable Display', 'Aptos Display', 'Inter', 'Segoe UI', Helvetica, Arial, sans-serif; font-weight: 700; font-kerning: normal; font-feature-settings: &quot;kern&quot; 1, &quot;liga&quot; 1; letter-spacing:-0.4px;" data-final-font-size="31">
          <tspan x="-24.0" dy="26.52px">Orbital Maneuvers</tspan>
        </text>
        <rect id="ITEM_4_HEAD_FRAME" x="-362" y="-30" width="338" height="36" fill="none"/>
        <text id="ITEM_4_BODY" data-bg-id="ITEM_4_TEXT_BG" text-anchor="end" font-size="22" fill="var(--primary-text)" opacity="0.92" x="-24.0" y="24.0" style="font-size: 23px; font-family: 'Segoe UI Variable Text', 'Aptos', 'Inter', 'Segoe UI', Helvetica, Arial, sans-serif; font-weight: 400; font-kerning: normal; font-feature-settings: &quot;kern&quot; 1, &quot;liga&quot; 1;" data-final-font-size="23">
          <tspan x="-24.0" dy="23.42px">Upper stage reorients</tspan>
          <tspan x="-24.0" dy="26.45px">to finalize orbital path</tspan>
        </text>
        <rect id="ITEM_4_BODY_FRAME" x="-380" y="24" width="356" height="78" fill="none"/>
      </g>
    </g>
    <line id="PHX_SEQUENCE_MIDROUTE_ARROW_1" x1="960.0" y1="547.0" x2="960.0" y2="603.0" stroke="var(--muted-text)" opacity="0.92" stroke-width="5" stroke-linecap="round" marker-end="url(#svg3aecad6f-PHX_SEQUENCE_DIRECTION_ARROW)" data-direction-cue="forward"/>
  </g>
  <text id="SOURCE_NOTE" x="134.0" y="1058.0" fill="var(--muted-text)" opacity="1" style="font-family: var(--font-family); font-size: 20px;">Source: Astronomy Picture of the Dayapod.nasa.gov</text>
</svg>
